<svg xmlns="http://www.w3.org/2000/svg" width="1200" height="720" viewBox="0 0 1200 720" role="img" aria-labelledby="title desc">
  <title id="title">Reservation logo SVG size preview</title>
  <desc id="desc">Preview sheet for master, 16, 32, 44, 180 and 512 SVG versions.</desc>
  <rect width="1200" height="720" fill="#f8f7f6"/>
  <text x="64" y="74" fill="#23221e" font-family='system-ui, sans-serif' font-size="28" font-weight="700">Modern Reservation Logo</text>
  <text x="64" y="108" fill="#706d65" font-family='system-ui, sans-serif' font-size="16">SmartHR Blue #00c4cc / Product Main #0077c7 / warm Stone background</text>

  <g transform="translate(72 164)">
    <rect x="0" y="0" width="360" height="360" rx="24" fill="#ffffff" stroke="#d6d3d0"/>
    <g transform="translate(44 44) scale(0.53)">
      <svg xmlns="http://www.w3.org/2000/svg" viewBox="0 0 512 512" role="img" aria-labelledby="title desc">
  
  

  
  <g fill="none" stroke-linecap="round" stroke-linejoin="round">
    <!-- open calendar frame -->
    <path d="M129 131h254c35.346 0 64 28.654 64 64v72"
      stroke="#00c4cc" stroke-width="28"/>
    <path d="M447 323v61c0 35.346-28.654 64-64 64H129c-35.346 0-64-28.654-64-64V195c0-35.346 28.654-64 64-64"
      stroke="#00c4cc" stroke-width="28"/>
    <path d="M206 131h100"
      stroke="#00c4cc" stroke-width="28"/>

    <!-- calendar rings / product accent -->
    <path d="M172 82v76M340 82v76"
      stroke="#0077c7" stroke-width="24"/>

    <!-- reserved slot -->
    <rect x="151" y="271" width="84" height="84" rx="19" fill="#00c4cc"/>

    <!-- integrated confirmation stroke -->
    <path d="M284 322l45 45 128-132"
      stroke="#00c4cc" stroke-width="31"/>
  </g>
</svg>

    </g>
    <text x="24" y="326" fill="#23221e" font-family='system-ui, sans-serif' font-size="15" font-weight="700">master SVG</text>
  </g>

  <g transform="translate(500 174)">
    <rect x="0" y="0" width="128" height="128" rx="16" fill="#ffffff" stroke="#d6d3d0"/>
    <g transform="translate(42 42) scale(0.086)">
      <svg xmlns="http://www.w3.org/2000/svg" viewBox="0 0 512 512" role="img" aria-labelledby="title desc">
  
  

  
  <g fill="none" stroke-linecap="round" stroke-linejoin="round">
    <path d="M126 142h260c33.137 0 60 26.863 60 60v178c0 33.137-26.863 60-60 60H126c-33.137 0-60-26.863-60-60V202c0-33.137 26.863-60 60-60Z"
      stroke="#00c4cc" stroke-width="34"/>
    <path d="M178 100v62M334 100v62"
      stroke="#0077c7" stroke-width="32"/>
    <rect x="160" y="270" width="78" height="78" rx="18" fill="#00c4cc"/>
    <path d="M270 314l48 48 112-116"
      stroke="#00c4cc" stroke-width="36"/>
  </g>
</svg>

    </g>
    <text x="0" y="162" fill="#23221e" font-family='system-ui, sans-serif' font-size="14">16x16</text>
  </g>

  <g transform="translate(672 174)">
    <rect x="0" y="0" width="128" height="128" rx="16" fill="#ffffff" stroke="#d6d3d0"/>
    <g transform="translate(36 36) scale(0.109)">
      <svg xmlns="http://www.w3.org/2000/svg" viewBox="0 0 512 512" role="img" aria-labelledby="title desc">
  
  

  
  <g fill="none" stroke-linecap="round" stroke-linejoin="round">
    <path d="M126 142h260c33.137 0 60 26.863 60 60v178c0 33.137-26.863 60-60 60H126c-33.137 0-60-26.863-60-60V202c0-33.137 26.863-60 60-60Z"
      stroke="#00c4cc" stroke-width="34"/>
    <path d="M178 100v62M334 100v62"
      stroke="#0077c7" stroke-width="32"/>
    <rect x="160" y="270" width="78" height="78" rx="18" fill="#00c4cc"/>
    <path d="M270 314l48 48 112-116"
      stroke="#00c4cc" stroke-width="36"/>
  </g>
</svg>

    </g>
    <text x="0" y="162" fill="#23221e" font-family='system-ui, sans-serif' font-size="14">32x32</text>
  </g>

  <g transform="translate(844 174)">
    <rect x="0" y="0" width="128" height="128" rx="16" fill="#ffffff" stroke="#d6d3d0"/>
    <g transform="translate(32 32) scale(0.125)">
      <svg xmlns="http://www.w3.org/2000/svg" viewBox="0 0 512 512" role="img" aria-labelledby="title desc">
  
  

  
  <g fill="none" stroke-linecap="round" stroke-linejoin="round">
    <path d="M126 142h260c33.137 0 60 26.863 60 60v178c0 33.137-26.863 60-60 60H126c-33.137 0-60-26.863-60-60V202c0-33.137 26.863-60 60-60Z"
      stroke="#00c4cc" stroke-width="34"/>
    <path d="M178 100v62M334 100v62"
      stroke="#0077c7" stroke-width="32"/>
    <rect x="160" y="270" width="78" height="78" rx="18" fill="#00c4cc"/>
    <path d="M270 314l48 48 112-116"
      stroke="#00c4cc" stroke-width="36"/>
  </g>
</svg>

    </g>
    <text x="0" y="162" fill="#23221e" font-family='system-ui, sans-serif' font-size="14">44x44 symbol</text>
  </g>

  <g transform="translate(500 420)">
    <rect x="0" y="0" width="160" height="160" rx="20" fill="#ffffff" stroke="#d6d3d0"/>
    <g transform="translate(18 18) scale(0.242)">
      <svg xmlns="http://www.w3.org/2000/svg" viewBox="0 0 512 512" role="img" aria-labelledby="title desc">
  
  

  
  <g fill="none" stroke-linecap="round" stroke-linejoin="round">
    <!-- open calendar frame -->
    <path d="M129 131h254c35.346 0 64 28.654 64 64v72"
      stroke="#00c4cc" stroke-width="28"/>
    <path d="M447 323v61c0 35.346-28.654 64-64 64H129c-35.346 0-64-28.654-64-64V195c0-35.346 28.654-64 64-64"
      stroke="#00c4cc" stroke-width="28"/>
    <path d="M206 131h100"
      stroke="#00c4cc" stroke-width="28"/>

    <!-- calendar rings / product accent -->
    <path d="M172 82v76M340 82v76"
      stroke="#0077c7" stroke-width="24"/>

    <!-- reserved slot -->
    <rect x="151" y="271" width="84" height="84" rx="19" fill="#00c4cc"/>

    <!-- integrated confirmation stroke -->
    <path d="M284 322l45 45 128-132"
      stroke="#00c4cc" stroke-width="31"/>
  </g>
</svg>

    </g>
    <text x="0" y="194" fill="#23221e" font-family='system-ui, sans-serif' font-size="14">180x180</text>
  </g>

  <g transform="translate(744 420)">
    <rect x="0" y="0" width="160" height="160" rx="20" fill="#ffffff" stroke="#d6d3d0"/>
    <g transform="translate(16 16) scale(0.25)">
      <svg xmlns="http://www.w3.org/2000/svg" viewBox="0 0 512 512" role="img" aria-labelledby="title desc">
  
  

  
  <g fill="none" stroke-linecap="round" stroke-linejoin="round">
    <!-- open calendar frame -->
    <path d="M129 131h254c35.346 0 64 28.654 64 64v72"
      stroke="#00c4cc" stroke-width="28"/>
    <path d="M447 323v61c0 35.346-28.654 64-64 64H129c-35.346 0-64-28.654-64-64V195c0-35.346 28.654-64 64-64"
      stroke="#00c4cc" stroke-width="28"/>
    <path d="M206 131h100"
      stroke="#00c4cc" stroke-width="28"/>

    <!-- calendar rings / product accent -->
    <path d="M172 82v76M340 82v76"
      stroke="#0077c7" stroke-width="24"/>

    <!-- reserved slot -->
    <rect x="151" y="271" width="84" height="84" rx="19" fill="#00c4cc"/>

    <!-- integrated confirmation stroke -->
    <path d="M284 322l45 45 128-132"
      stroke="#00c4cc" stroke-width="31"/>
  </g>
</svg>

    </g>
    <text x="0" y="194" fill="#23221e" font-family='system-ui, sans-serif' font-size="14">512x512</text>
  </g>

  <g transform="translate(988 420)">
    <rect x="0" y="0" width="160" height="160" rx="36" fill="#ffffff" stroke="#d6d3d0"/>
    <g transform="translate(16 16) scale(0.25)">
      <svg xmlns="http://www.w3.org/2000/svg" viewBox="0 0 512 512" role="img" aria-labelledby="title desc">
  
  

  
  <g fill="none" stroke-linecap="round" stroke-linejoin="round">
    <!-- open calendar frame -->
    <path d="M129 131h254c35.346 0 64 28.654 64 64v72"
      stroke="#00c4cc" stroke-width="28"/>
    <path d="M447 323v61c0 35.346-28.654 64-64 64H129c-35.346 0-64-28.654-64-64V195c0-35.346 28.654-64 64-64"
      stroke="#00c4cc" stroke-width="28"/>
    <path d="M206 131h100"
      stroke="#00c4cc" stroke-width="28"/>

    <!-- calendar rings / product accent -->
    <path d="M172 82v76M340 82v76"
      stroke="#0077c7" stroke-width="24"/>

    <!-- reserved slot -->
    <rect x="151" y="271" width="84" height="84" rx="19" fill="#00c4cc"/>

    <!-- integrated confirmation stroke -->
    <path d="M284 322l45 45 128-132"
      stroke="#00c4cc" stroke-width="31"/>
  </g>
</svg>

    </g>
    <text x="0" y="194" fill="#23221e" font-family='system-ui, sans-serif' font-size="14">tile usage</text>
  </g>
</svg>